

<svg width="572" height="512" viewBox="0 0 572 512" fill="none" xmlns="http://www.w3.org/2000/svg">
<circle cx="246.56" cy="306.836" r="137.429" transform="rotate(0.371879 246.56 306.836)" fill="#171719"/>
<path d="M162.425 236.143L140.513 191.086C116.281 141.26 151.389 82.9957 206.765 81.1387L245.04 79.8552L289.943 81.7937C347.185 84.2648 381.508 146.452 353.089 196.202L329.653 237.228" stroke="#171719" stroke-width="32.275"/>
<path fill-rule="evenodd" clip-rule="evenodd" d="M142.318 235.037C144.798 236.344 142.318 235.037 133.501 258.221C119.113 296.051 123.861 323.022 136.083 350.924C148.38 378.996 163.241 397.097 178.319 412.763C180.56 414.447 178.395 414.819 190.871 423.622C190.06 426.396 176.004 417.968 173.763 416.284C157.16 403.806 139.912 384.965 126.785 354.997C113.583 324.858 109.57 287.901 130.021 249.083C131.328 246.603 139.838 233.731 142.318 235.037Z" fill="#535353"/>
<path fill-rule="evenodd" clip-rule="evenodd" d="M366.893 162.694C364.869 179.372 358.218 194.243 352.659 202.909L359.207 180.528C361.326 164.347 359.207 180.528 361.984 162.098C363.9 146.309 360.108 120.173 347.954 105.504L353.058 111.242C366.316 127.243 368.923 145.976 366.893 162.694Z" fill="#535353"/>
<path d="M350.139 414C349.517 412.755 349.011 410.538 348.622 407.349C343.605 412.561 337.615 415.167 330.653 415.167C324.43 415.167 319.316 413.417 315.31 409.916C311.343 406.377 309.359 401.904 309.359 396.498C309.359 389.925 311.848 384.83 316.827 381.213C321.844 377.557 328.884 375.729 337.946 375.729H348.447V370.77C348.447 366.997 347.319 364.002 345.063 361.785C342.808 359.53 339.482 358.402 335.087 358.402C331.237 358.402 328.009 359.374 325.403 361.319C322.797 363.263 321.494 365.616 321.494 368.378H310.643C310.643 365.228 311.751 362.194 313.968 359.277C316.224 356.321 319.257 353.987 323.069 352.276C326.92 350.565 331.139 349.709 335.729 349.709C343.002 349.709 348.7 351.537 352.823 355.193C356.945 358.81 359.084 363.808 359.24 370.186V399.24C359.24 405.035 359.979 409.644 361.457 413.067V414H350.139ZM332.228 405.774C335.612 405.774 338.821 404.899 341.855 403.149C344.888 401.398 347.086 399.123 348.447 396.323V383.371H339.988C326.764 383.371 320.152 387.241 320.152 394.981C320.152 398.365 321.28 401.01 323.536 402.915C325.792 404.821 328.689 405.774 332.228 405.774ZM390.802 335.591V350.876H402.587V359.218H390.802V398.365C390.802 400.893 391.327 402.799 392.377 404.082C393.427 405.327 395.217 405.949 397.745 405.949C398.989 405.949 400.701 405.716 402.879 405.249V414C400.039 414.778 397.278 415.167 394.594 415.167C389.771 415.167 386.135 413.708 383.685 410.791C381.234 407.874 380.009 403.732 380.009 398.365V359.218H368.516V350.876H380.009V335.591H390.802ZM441.442 415.167C432.885 415.167 425.923 412.366 420.556 406.766C415.188 401.126 412.505 393.6 412.505 384.188V382.205C412.505 375.943 413.691 370.361 416.063 365.461C418.475 360.521 421.82 356.671 426.098 353.91C430.415 351.109 435.082 349.709 440.1 349.709C448.306 349.709 454.685 352.412 459.235 357.818C463.786 363.225 466.061 370.964 466.061 381.038V385.53H423.298C423.453 391.753 425.262 396.79 428.723 400.64C432.224 404.452 436.658 406.357 442.025 406.357C445.836 406.357 449.065 405.58 451.709 404.024C454.354 402.468 456.668 400.407 458.652 397.84L465.244 402.974C459.955 411.102 452.021 415.167 441.442 415.167ZM440.1 358.577C435.744 358.577 432.088 360.171 429.132 363.361C426.176 366.511 424.348 370.945 423.648 376.662H455.268V375.845C454.957 370.361 453.479 366.122 450.834 363.127C448.19 360.094 444.611 358.577 440.1 358.577Z" fill="#10AC84"/>
<path d="M328.91 323.167C320.353 323.167 313.391 320.366 308.024 314.766C302.657 309.126 299.973 301.6 299.973 292.188V290.205C299.973 283.943 301.159 278.361 303.532 273.461C305.943 268.521 309.288 264.671 313.566 261.91C317.884 259.109 322.551 257.709 327.568 257.709C335.775 257.709 342.153 260.412 346.704 265.818C351.254 271.225 353.53 278.964 353.53 289.038V293.53H310.766C310.922 299.753 312.73 304.79 316.192 308.64C319.692 312.452 324.126 314.357 329.493 314.357C333.305 314.357 336.533 313.58 339.178 312.024C341.823 310.468 344.137 308.407 346.12 305.84L352.713 310.974C347.423 319.102 339.489 323.167 328.91 323.167ZM327.568 266.577C323.212 266.577 319.556 268.171 316.6 271.361C313.644 274.511 311.816 278.945 311.116 284.662H342.737V283.845C342.425 278.361 340.947 274.122 338.303 271.127C335.658 268.094 332.08 266.577 327.568 266.577ZM377.799 322H367.006V258.876H377.799V322ZM366.131 242.132C366.131 240.382 366.656 238.904 367.706 237.698C368.795 236.493 370.39 235.89 372.49 235.89C374.59 235.89 376.185 236.493 377.274 237.698C378.363 238.904 378.908 240.382 378.908 242.132C378.908 243.882 378.363 245.341 377.274 246.508C376.185 247.674 374.59 248.258 372.49 248.258C370.39 248.258 368.795 247.674 367.706 246.508C366.656 245.341 366.131 243.882 366.131 242.132ZM392.559 289.913C392.559 280.073 394.834 272.255 399.385 266.46C403.936 260.626 409.964 257.709 417.47 257.709C425.171 257.709 431.18 260.432 435.498 265.877L436.023 258.876H445.882V320.483C445.882 328.651 443.451 335.088 438.59 339.794C433.767 344.5 427.272 346.853 419.104 346.853C414.553 346.853 410.1 345.881 405.744 343.936C401.388 341.991 398.063 339.327 395.768 335.943L401.369 329.468C405.997 335.185 411.656 338.044 418.346 338.044C423.596 338.044 427.68 336.566 430.597 333.61C433.553 330.654 435.031 326.492 435.031 321.125V315.699C430.714 320.678 424.821 323.167 417.354 323.167C409.964 323.167 403.974 320.191 399.385 314.241C394.834 308.29 392.559 300.181 392.559 289.913ZM403.41 291.138C403.41 298.256 404.869 303.856 407.786 307.94C410.703 311.985 414.787 314.007 420.037 314.007C426.844 314.007 431.842 310.915 435.031 304.731V275.911C431.725 269.883 426.766 266.868 420.154 266.868C414.903 266.868 410.8 268.91 407.844 272.994C404.888 277.078 403.41 283.126 403.41 291.138ZM473.01 266.518C477.794 260.645 484.017 257.709 491.679 257.709C505.02 257.709 511.748 265.235 511.865 280.287V322H501.072V280.228C501.033 275.678 499.983 272.314 497.922 270.135C495.899 267.957 492.729 266.868 488.412 266.868C484.912 266.868 481.839 267.802 479.194 269.669C476.55 271.536 474.488 273.986 473.01 277.02V322H462.217V232.389H473.01V266.518ZM542.669 243.591V258.876H554.453V267.218H542.669V306.365C542.669 308.893 543.194 310.799 544.244 312.082C545.294 313.327 547.083 313.949 549.611 313.949C550.856 313.949 552.567 313.716 554.745 313.249V322C551.906 322.778 549.144 323.167 546.461 323.167C541.638 323.167 538.001 321.708 535.551 318.791C533.101 315.874 531.876 311.732 531.876 306.365V267.218H520.383V258.876H531.876V243.591H542.669Z" fill="#D3DDE7"/>
<path d="M220.495 293.97L222.205 305.695L224.709 295.131L242.296 233.087H252.189L269.348 295.131L271.791 305.878L273.684 293.909L287.485 233.087H299.271L277.714 322H267.028L248.708 257.208L247.303 250.43L245.899 257.208L226.907 322H216.22L194.725 233.087H206.45L220.495 293.97Z" fill="#10AC84"/>
<path d="M273.505 349.357L271.795 337.632L269.291 348.196L251.704 410.24L241.811 410.24L224.652 348.196L222.209 337.449L220.316 349.418L206.515 410.24L194.729 410.24L216.286 321.327L226.972 321.327L245.292 386.119L246.697 392.897L248.101 386.119L267.093 321.327L277.78 321.327L299.275 410.24L287.55 410.24L273.505 349.357Z" fill="#D3DDE7"/>
</svg>
